<?xml version="1.0" encoding="UTF-8" standalone="no"?>
<svg width="49px" height="64px" viewBox="0 0 49 64" version="1.1" xmlns="http://www.w3.org/2000/svg" xmlns:xlink="http://www.w3.org/1999/xlink" xmlns:sketch="http://www.bohemiancoding.com/sketch/ns">
    <!-- Generator: Sketch 3.0.3 (7891) - http://www.bohemiancoding.com/sketch -->
    <title>Book-bookmark</title>
    <desc>Created with Sketch.</desc>
    <defs></defs>
    <g id="Page-1" stroke="none" stroke-width="1" fill="none" fill-rule="evenodd" sketch:type="MSPage">
        <g id="Book-bookmark" sketch:type="MSLayerGroup" transform="translate(2.000000, 1.000000)" stroke="#6B6C6E" stroke-width="2">
            <path d="M44,8 C45.1,8 46,8.9 46,10 L46,60 C46,61.1 45.1,62 44,62 L2,62 C0.9,62 0,61.1 0,60 L0,4" id="Shape" sketch:type="MSShapeGroup"></path>
            <path d="M5,11 L5,59" id="Shape" sketch:type="MSShapeGroup"></path>
            <path d="M44,4.5 L44,8 L3.2,8 C1.6,8 -0.1,5.9 -0.1,4 L-0.1,4 C-0.1,2.1 1.5,0 3.2,0 L41,0 C42.6,0 43.9,0.6 43.9,2.5 L44,4.5 L44,4.5 Z" id="Shape" sketch:type="MSShapeGroup"></path>
            <path d="M4,4 L40,4" id="Shape" sketch:type="MSShapeGroup"></path>
            <path d="M18.1,42 C18.1,42.6 17.7,43 17.1,43 L14.1,39 L11.1,43 C10.5,43 10.1,42.6 10.1,42 L10.1,9 C10.1,8.4 10.5,8 11.1,8 L17.1,8 C17.7,8 18.1,8.4 18.1,9 L18.1,42 L18.1,42 Z" id="Shape" sketch:type="MSShapeGroup"></path>
        </g>
    </g>
</svg>